<svg xmlns="http://www.w3.org/2000/svg" width="989" height="2022.602" viewBox="0 0 989 2022.602">
  <path id="Intersection_1" data-name="Intersection 1" d="M820.042,2009.755c-36.4-3.431-72.983-8.61-108.723-15.4-35.278-6.7-70.584-15.122-104.939-25.036-33.971-9.8-67.819-21.3-100.6-34.165-32.482-12.748-64.687-27.142-95.719-42.783-30.811-15.53-61.186-32.652-90.283-50.891-28.956-18.15-57.317-37.828-84.3-58.487-26.914-20.609-53.076-42.672-77.76-65.575s-48.463-47.178-70.674-72.15c-22.265-25.034-43.474-51.349-63.035-78.214-19.658-27-38.111-55.183-54.849-83.77a985.838,985.838,0,0,1-46.11-88.813,966.572,966.572,0,0,1-36.822-93.345,950.366,950.366,0,0,1,0-604.255,966.572,966.572,0,0,1,36.822-93.345,985.822,985.822,0,0,1,46.11-88.813c16.737-28.588,35.191-56.772,54.849-83.769,19.562-26.867,40.77-53.182,63.035-78.215,22.211-24.971,45.989-49.246,70.674-72.15s50.846-44.966,77.76-65.575c26.979-20.66,55.341-40.337,84.3-58.487,29.1-18.239,59.472-35.362,90.283-50.891,31.032-15.641,63.237-30.036,95.719-42.783,32.785-12.866,66.633-24.361,100.6-34.165,34.355-9.914,69.661-18.338,104.939-25.036,35.74-6.786,72.32-11.966,108.723-15.4q2.976-.28,5.958-.546V397.3q-13.29,2-26.409,4.489c-21.165,4.019-42.349,9.073-62.963,15.022-20.383,5.882-40.692,12.779-60.362,20.5a674.659,674.659,0,0,0-111.6,56.2,653.716,653.716,0,0,0-97.234,74.438,626.456,626.456,0,0,0-80.225,90.219,597.169,597.169,0,0,0-60.574,103.549,579.778,579.778,0,0,0-22.093,56.007,570.2,570.2,0,0,0,0,362.552,579.677,579.677,0,0,0,22.093,56.007,597.165,597.165,0,0,0,60.574,103.55,626.508,626.508,0,0,0,80.225,90.22,653.768,653.768,0,0,0,97.234,74.437,674.7,674.7,0,0,0,111.6,56.205c19.67,7.719,39.979,14.616,60.362,20.5,20.614,5.949,41.8,11,62.963,15.022q13.1,2.487,26.409,4.489v409.6Q823.018,2010.035,820.042,2009.755Z" transform="translate(163 12.301)" fill="rgba(40,174,96,0.11)"/>
</svg>