<svg aria-hidden="true" class="_ufjrdd" style="fill:#002D72;height:20px;width:20px" viewBox="0 0 48 48" role="img" aria-labelledby="ShareableCertificate4a8b8b95-ccee-4081-ddf2-3e40d1517d80 ShareableCertificate4a8b8b95-ccee-4081-ddf2-3e40d1517d80Desc" xmlns="http://www.w3.org/2000/svg"><title id="ShareableCertificate4a8b8b95-ccee-4081-ddf2-3e40d1517d80">Shareable Certificate</title><path fill-rule="evenodd" transform="translate(0, 7)" d="M0,33.4883721 L48,33.4883721 L48,0 L0,0 L0,33.4883721 Z M2.23255814,31.2835216 L45.7685581,31.2835216 L45.7685581,2.20595294 L2.23255814,2.20595294 L2.23255814,31.2835216 Z M37.9534884,18.5546345 L37.9534884,24.788241 L34.354436,23.3584786 L30.5362598,24.7838735 L30.5362598,18.8590034 C28.305764,17.6498837 26.7906977,15.3076504 26.7906977,12.622016 C26.7906977,8.7009892 30.0194673,5.5121263 33.9894439,5.5121263 C37.9598282,5.5121263 41.1886812,8.7009069 41.1886812,12.622016 C41.1886812,15.0409886 39.9485788,17.251856 37.9534884,18.5546345 Z M33.9894734,7.4680421 C31.1125966,7.4680421 28.7711928,9.7805068 28.7711928,12.6219868 C28.7711928,15.4630998 31.1126571,17.7755049 33.9894734,17.7755049 C34.9006939,17.7755049 35.7772388,17.544058 36.5515083,17.1107151 C38.1883943,16.1858852 39.208186,14.4893549 39.208186,12.6219868 C39.208186,9.7804471 36.8667218,7.4680421 33.9894734,7.4680421 Z M32.2012663,22.1366425 L34.3414624,21.3376682 L36.2702836,22.1039133 L36.2702836,19.3659681 C35.5424465,19.6066591 34.7746492,19.7314207 33.9894734,19.7314207 C33.3801179,19.7314207 32.7805792,19.6561943 32.2012663,19.5094807 L32.2012663,22.1366425 Z" role="presentation"></path></svg>